<svg xmlns="http://www.w3.org/2000/svg" width="900" height="620" viewBox="0 0 900 620" fill="none">
  <rect width="900" height="620" rx="36" fill="#F5F6FA"/>
  <circle cx="720" cy="140" r="76" fill="#EAF4FD"/>
  <circle cx="160" cy="500" r="62" fill="#F0ECFB"/>
  <rect x="72" y="84" width="340" height="256" rx="28" fill="#FFFFFF" stroke="#DDE2EC"/>
  <rect x="72" y="84" width="340" height="64" rx="28" fill="#4B2E9E"/>
  <rect x="72" y="120" width="340" height="28" fill="#4B2E9E"/>
  <circle cx="114" cy="116" r="10" fill="#FFFFFF" fill-opacity="0.25"/>
  <circle cx="148" cy="116" r="10" fill="#FFFFFF" fill-opacity="0.25"/>
  <circle cx="182" cy="116" r="10" fill="#FFFFFF" fill-opacity="0.25"/>
  <text x="250" y="123" text-anchor="middle" font-family="Arial, sans-serif" font-size="20" font-weight="700" fill="#FFFFFF">Weekly Schedule</text>
  <g font-family="Arial, sans-serif" font-size="16" font-weight="700" fill="#6B7280">
    <text x="105" y="182">Mon</text><text x="150" y="182">Tue</text><text x="196" y="182">Wed</text><text x="244" y="182">Thu</text><text x="290" y="182">Fri</text><text x="336" y="182">Sat</text>
  </g>
  <g>
    <rect x="98" y="202" width="36" height="36" rx="12" fill="#EEF0F5"/>
    <rect x="144" y="202" width="36" height="36" rx="12" fill="#4B2E9E"/>
    <rect x="190" y="202" width="36" height="36" rx="12" fill="#EEF0F5"/>
    <rect x="236" y="202" width="36" height="36" rx="12" fill="#4B2E9E"/>
    <rect x="282" y="202" width="36" height="36" rx="12" fill="#EEF0F5"/>
    <rect x="328" y="202" width="36" height="36" rx="12" fill="#4B2E9E"/>
  </g>
  <g font-family="Arial, sans-serif" font-size="16" font-weight="700" fill="#6B7280">
    <text x="111" y="225">M</text><text x="157" y="225" fill="#FFFFFF">T</text><text x="202" y="225">W</text><text x="248" y="225" fill="#FFFFFF">T</text><text x="295" y="225">F</text><text x="341" y="225" fill="#FFFFFF">S</text>
  </g>
  <rect x="98" y="266" width="268" height="46" rx="16" fill="#F0ECFB"/>
  <text x="120" y="295" font-family="Arial, sans-serif" font-size="18" font-weight="700" fill="#4B2E9E">3 live lessons each week</text>
  <rect x="470" y="92" width="356" height="206" rx="30" fill="#FFFFFF" stroke="#DDE2EC"/>
  <text x="512" y="136" font-family="Arial, sans-serif" font-size="26" font-weight="800" fill="#1F2A55">Progress you can see</text>
  <text x="512" y="172" font-family="Arial, sans-serif" font-size="16" font-weight="600" fill="#66708A">Reports, homework feedback, and level advancement.</text>
  <rect x="510" y="204" width="252" height="18" rx="9" fill="#E8F6EE"/>
  <rect x="510" y="204" width="180" height="18" rx="9" fill="#3CAF6E"/>
  <text x="772" y="219" text-anchor="end" font-family="Arial, sans-serif" font-size="13" font-weight="700" fill="#3CAF6E">72%</text>
  <rect x="510" y="242" width="252" height="18" rx="9" fill="#EAF4FD"/>
  <rect x="510" y="242" width="208" height="18" rx="9" fill="#3AAEDB"/>
  <text x="772" y="257" text-anchor="end" font-family="Arial, sans-serif" font-size="13" font-weight="700" fill="#3AAEDB">83%</text>
  <rect x="510" y="280" width="252" height="18" rx="9" fill="#F0ECFB"/>
  <rect x="510" y="280" width="224" height="18" rx="9" fill="#7B5FC7"/>
  <text x="772" y="295" text-anchor="end" font-family="Arial, sans-serif" font-size="13" font-weight="700" fill="#7B5FC7">89%</text>
  <rect x="80" y="392" width="300" height="150" rx="28" fill="#FFFFFF" stroke="#DDE2EC"/>
  <circle cx="132" cy="440" r="28" fill="#EAF4FD"/>
  <path d="M132 422v18l12 8" stroke="#4A9FE8" stroke-width="8" stroke-linecap="round" stroke-linejoin="round"/>
  <text x="180" y="433" font-family="Arial, sans-serif" font-size="22" font-weight="800" fill="#1F2A55">Consistent timing</text>
  <text x="180" y="464" font-family="Arial, sans-serif" font-size="16" font-weight="600" fill="#66708A">Fixed lesson times that fit your routine.</text>
  <text x="180" y="500" font-family="Arial, sans-serif" font-size="16" font-weight="700" fill="#4B2E9E">Tue · Thu · Sat — 6:30 PM</text>
  <rect x="438" y="354" width="388" height="194" rx="32" fill="#1F2A55"/>
  <text x="476" y="408" font-family="Arial, sans-serif" font-size="20" font-weight="800" fill="#FFFFFF">Recorded lessons</text>
  <text x="476" y="440" font-family="Arial, sans-serif" font-size="15" font-weight="600" fill="#C9D0E3">Review every lesson later in your app.</text>
  <rect x="476" y="470" width="110" height="12" rx="6" fill="#FFFFFF" fill-opacity="0.18"/>
  <rect x="476" y="470" width="78" height="12" rx="6" fill="#FFFFFF"/>
  <polygon points="714,430 714,472 756,451" fill="#FFFFFF" fill-opacity="0.92"/>
  <rect x="690" y="408" width="86" height="86" rx="20" fill="#2D3A72"/>
  <circle cx="747" cy="519" r="10" fill="#8ED8AF"/>
  <circle cx="778" cy="519" r="10" fill="#F3D27B"/>
</svg>